<?xml version="1.0" encoding="UTF-8" standalone="no"?>
<svg
   xmlns:dc="http://purl.org/dc/elements/1.1/"
   xmlns:cc="http://creativecommons.org/ns#"
   xmlns:rdf="http://www.w3.org/1999/02/22-rdf-syntax-ns#"
   xmlns:svg="http://www.w3.org/2000/svg"
   xmlns="http://www.w3.org/2000/svg"
   xmlns:xlink="http://www.w3.org/1999/xlink"
   xmlns:sodipodi="http://sodipodi.sourceforge.net/DTD/sodipodi-0.dtd"
   xmlns:inkscape="http://www.inkscape.org/namespaces/inkscape"
   inkscape:version="1.0 (4035a4fb49, 2020-05-01)"
   height="34.700001"
   width="286.5"
   sodipodi:docname="FA.svg"
   xml:space="preserve"
   viewBox="0 0 286.5 34.700002"
   y="0px"
   x="0px"
   id="Livello_1"
   version="1.1"><metadata
   id="metadata62"><rdf:RDF><cc:Work
       rdf:about=""><dc:format>image/svg+xml</dc:format><dc:type
         rdf:resource="http://purl.org/dc/dcmitype/StillImage" /><dc:title></dc:title></cc:Work></rdf:RDF></metadata><defs
   id="defs60" /><sodipodi:namedview
   inkscape:current-layer="Livello_1"
   inkscape:window-maximized="0"
   inkscape:window-y="0"
   inkscape:window-x="0"
   inkscape:cy="37.349998"
   inkscape:cx="204.25"
   inkscape:zoom="3.6744186"
   showgrid="false"
   id="namedview58"
   inkscape:window-height="1057"
   inkscape:window-width="2512"
   inkscape:pageshadow="2"
   inkscape:pageopacity="0"
   guidetolerance="10"
   gridtolerance="10"
   objecttolerance="10"
   borderopacity="1"
   bordercolor="#666666"
   pagecolor="#ffffff" />
<style
   id="style2"
   type="text/css">
	.Arco_x0020_verde{fill:url(#SVGID_1_);stroke:#FFFFFF;stroke-width:0.25;stroke-miterlimit:1;}
	.st0{fill-rule:evenodd;clip-rule:evenodd;fill:#192F39;}
	.st1{fill-rule:evenodd;clip-rule:evenodd;fill:#FFFFFF;}
	.st2{fill:none;stroke:#000000;stroke-width:0.216;stroke-miterlimit:22.9256;}
	.st3{clip-path:url(#SVGID_3_);fill:url(#SVGID_4_);}
	.st4{clip-path:url(#SVGID_6_);fill:url(#SVGID_7_);}
</style>
<linearGradient
   y2="467.7514"
   x2="-100.7797"
   y1="468.4585"
   x1="-101.4868"
   gradientUnits="userSpaceOnUse"
   id="SVGID_1_">
	<stop
   id="stop4"
   style="stop-color:#259E2E"
   offset="0" />
	<stop
   id="stop6"
   style="stop-color:#1C381D"
   offset="0.9831" />
</linearGradient>
<g
   transform="translate(-61.132606,-20.3)"
   id="g55">
	<path
   id="path9"
   d="m 198.1,31.2 h 3.8 l 0.2,-4.6 z m 9.4,9.1 h -6 l 0.2,-4.5 h -7.6 l -3.8,4.5 h -6.2 L 202,20.4 h 5.4 z m -26.8,0 h -5.8 L 184,20.4 h 5.8 z M 177.3,24.8 H 170 c -1.7,0 -3.2,0.6 -4.4,1.7 -0.9,0.9 -1.8,2.2 -2.7,4.1 -0.2,0.4 -0.4,0.9 -0.8,1.7 -0.3,0.8 -0.5,1.4 -0.5,1.9 0,1.1 0.9,1.7 2.7,1.7 h 7.9 l -2.1,4.5 h -7.4 c -3.1,0 -5.2,-0.8 -6.3,-2.4 -0.5,-0.7 -0.8,-1.6 -0.8,-2.7 0,-1.3 0.4,-2.9 1.3,-4.8 3,-6.7 7.8,-10 14.3,-10 h 7.9 z m -20.2,0 h -7.3 c -1.7,0 -3.2,0.6 -4.4,1.7 -0.9,0.9 -1.8,2.2 -2.7,4.1 -0.2,0.4 -0.4,0.9 -0.8,1.7 -0.3,0.8 -0.5,1.4 -0.5,1.9 0,1.1 0.9,1.7 2.7,1.7 h 7.9 l -2.1,4.5 h -7.4 c -3.1,0 -5.2,-0.8 -6.3,-2.4 -0.5,-0.7 -0.8,-1.6 -0.8,-2.7 0,-1.3 0.4,-2.9 1.3,-4.8 3,-6.7 7.8,-10 14.3,-10 h 7.9 z m -21.5,0.1 h -7.3 c -2.3,0 -4.1,1 -5.5,3.1 h 11.3 l -2.1,4.5 h -11.5 c -0.3,0.8 -0.5,1.4 -0.5,1.9 0,0.3 0.1,0.6 0.2,0.7 0.3,0.4 1.1,0.6 2.3,0.6 h 7.9 l -2.1,4.5 h -7.4 c -3.1,0 -5.2,-0.8 -6.3,-2.4 -0.5,-0.7 -0.8,-1.6 -0.8,-2.7 0,-1.3 0.4,-2.9 1.3,-4.8 1.7,-3.7 3.8,-6.3 6.2,-7.9 2.2,-1.4 4.9,-2.1 8.1,-2.1 h 7.9 z M 107.1,25 h -4.6 l -1.6,3.4 h 4 c 1.2,0 2.1,-0.1 2.6,-0.3 0.7,-0.3 1.2,-0.8 1.6,-1.7 0.3,-0.6 0.3,-0.9 0.2,-1.1 -0.3,-0.2 -1,-0.3 -2.2,-0.3 z m 1.4,7.3 1.3,7.9 h -6 l -1.1,-7.3 h -3.8 l -3.3,7.3 H 90 l 9,-19.8 h 10.7 c 3.9,0 5.8,1.2 5.8,3.5 0,0.9 -0.3,1.9 -0.8,3 -1.3,2.8 -3.4,4.6 -6.2,5.4 z M 93.3,24.9 h -7.1 c -2.6,0 -4.6,1.1 -6.1,3.3 h 11.7 l -2,4.5 H 78 l -3.5,7.6 h -5.7 l 4.3,-9.4 c 1.1,-2.4 2,-4 2.7,-5.1 1.2,-1.7 2.7,-3 4.4,-3.9 2.1,-1 4.7,-1.5 7.9,-1.5 h 7.4 z m 229.8,0.4 h -6.2 l -6.9,15 h -5.8 l 6.9,-15 h -6.2 l 2,-4.4 h 18.2 z m -28.7,15 h -5.7 l -1.8,-12 -5.5,12 h -5.5 l 8.9,-19.5 h 6.2 l 1.7,11.3 5.2,-11.3 h 5.4 z M 277.8,25.2 h -7.1 c -2.2,0 -4,1 -5.4,3 h 11.1 l -2,4.4 h -11.3 c -0.3,0.8 -0.4,1.4 -0.4,1.9 0,0.3 0.1,0.6 0.2,0.7 0.3,0.4 1.1,0.6 2.3,0.6 h 7.8 l -2,4.4 h -7.3 c -3.1,0 -5.1,-0.8 -6.2,-2.3 -0.5,-0.7 -0.7,-1.6 -0.7,-2.6 0,-1.3 0.4,-2.9 1.2,-4.7 1.7,-3.6 3.7,-6.2 6.1,-7.8 2.1,-1.4 4.8,-2.1 8,-2.1 h 7.8 z m -20.4,0 h -9.2 c -2.8,0 -5,1.8 -6.7,5.5 -0.7,1.5 -1,2.6 -1,3.5 0,0.4 0.1,0.7 0.2,0.9 0.3,0.5 1,0.7 2,0.7 h 4.2 l 1.4,-3 h -5.4 l 2.1,-4.5 h 11 l -5.5,12.1 H 241 c -1.3,0 -2.4,-0.1 -3.1,-0.3 -2.5,-0.6 -3.7,-2.1 -3.7,-4.5 0,-1.4 0.4,-3 1.3,-4.9 3,-6.6 7.7,-9.8 14.1,-9.8 h 9.8 z m -30.7,0.1 h -4.5 l -1.5,3.4 h 3.9 c 1.2,0 2.1,-0.1 2.5,-0.3 0.7,-0.3 1.2,-0.8 1.6,-1.7 0.3,-0.6 0.3,-0.9 0.2,-1 -0.3,-0.3 -1,-0.4 -2.2,-0.4 z m 1.3,7.2 1.2,7.8 h -5.9 l -1.1,-7.1 h -3.8 l -3.3,7.1 h -5.5 l 8.9,-19.5 H 229 c 3.8,0 5.7,1.1 5.7,3.4 0,0.8 -0.3,1.8 -0.8,3 -1,2.7 -3.1,4.5 -5.9,5.3 z m 108.3,-7.7 c -3.3,0 -5.8,2 -7.6,5.9 -0.8,1.7 -1.2,3 -1.2,3.8 0,0.1 0,0.2 0,0.2 0.1,1 1.1,1.5 2.9,1.5 1.9,0 3.4,-0.6 4.8,-1.8 1.1,-1 2,-2.4 2.9,-4.3 0.7,-1.5 1,-2.7 1,-3.6 0,-0.4 -0.1,-0.7 -0.2,-1 -0.4,-0.4 -1.2,-0.7 -2.6,-0.7 z m 7.4,6 c -3,6.6 -7.9,9.9 -14.7,9.9 -4.9,0 -7.4,-1.7 -7.4,-5.2 0,-1.5 0.5,-3.2 1.4,-5.2 1.5,-3.2 3.3,-5.6 5.5,-7.2 2.4,-1.8 5.5,-2.6 9.1,-2.6 5.1,0 7.6,1.6 7.6,4.9 0.1,1.3 -0.5,3.2 -1.5,5.4 z"
   class="st0" />
	<polygon
   id="polygon11"
   points="65.1,45.9 347.1,45.9 343.3,54.3 61.3,54.3 "
   class="st1" />
	<polygon
   id="polygon13"
   points="65.1,45.9 347.1,45.9 343.3,54.3 61.3,54.3 "
   class="st2" />
	<g
   id="g32">
		<defs
   id="defs16">
			<polygon
   points="159.1,46.9 65.7,46.9 62.8,53.4 156.1,53.4 "
   id="SVGID_2_" />
		</defs>
		<clipPath
   id="SVGID_3_">
			<use
   height="100%"
   width="100%"
   y="0"
   x="0"
   id="use18"
   style="overflow:visible"
   xlink:href="#SVGID_2_" />
		</clipPath>
		
			<linearGradient
   gradientTransform="matrix(0,-6.5191,96.3003,0,-107568.84,-5916.5596)"
   y2="1118.1663"
   x2="-914.76031"
   y1="1118.1663"
   x1="-915.76019"
   gradientUnits="userSpaceOnUse"
   id="SVGID_4_">
			<stop
   id="stop21"
   style="stop-color:#00501F"
   offset="0" />
			<stop
   id="stop23"
   style="stop-color:#00712D"
   offset="0.28" />
			<stop
   id="stop25"
   style="stop-color:#008E36"
   offset="0.93" />
			<stop
   id="stop27"
   style="stop-color:#00501F"
   offset="1" />
		</linearGradient>
		<rect
   style="fill:url(#SVGID_4_)"
   id="rect30"
   clip-path="url(#SVGID_3_)"
   height="6.5"
   width="96.300003"
   class="st3"
   y="46.900002"
   x="62.799999" />
	</g>
	<polygon
   id="polygon34"
   points="252.4,46.9 159.1,46.9 156.1,53.4 249.4,53.4 "
   class="st1" />
	<g
   id="g53">
		<defs
   id="defs37">
			<polygon
   points="345.7,46.9 252.4,46.9 249.4,53.4 342.7,53.4 "
   id="SVGID_5_" />
		</defs>
		<clipPath
   id="SVGID_6_">
			<use
   height="100%"
   width="100%"
   y="0"
   x="0"
   id="use39"
   style="overflow:visible"
   xlink:href="#SVGID_5_" />
		</clipPath>
		
			<linearGradient
   gradientTransform="matrix(0,-6.5191,96.3003,0,-107382.31,-5916.5596)"
   y2="1118.1676"
   x2="-914.76031"
   y1="1118.1676"
   x1="-915.76019"
   gradientUnits="userSpaceOnUse"
   id="SVGID_7_">
			<stop
   id="stop42"
   style="stop-color:#830B1D"
   offset="0" />
			<stop
   id="stop44"
   style="stop-color:#AF0526"
   offset="0.28" />
			<stop
   id="stop46"
   style="stop-color:#DC002F"
   offset="0.93" />
			<stop
   id="stop48"
   style="stop-color:#850B1D"
   offset="1" />
		</linearGradient>
		<rect
   style="fill:url(#SVGID_7_)"
   id="rect51"
   clip-path="url(#SVGID_6_)"
   height="6.5"
   width="96.300003"
   class="st4"
   y="46.900002"
   x="249.39999" />
	</g>
</g>
</svg>
