<?xml version="1.0" encoding="UTF-8"?><svg xmlns="http://www.w3.org/2000/svg" viewBox="0 0 391.83 99.21"><defs><style>.c{fill:#111c4e;}.c,.d{fill-rule:evenodd;}.d{fill:#ffd100;}</style></defs><g id="a"><g><g><path class="c" d="M177.37,76.15h4.19v2.95l.07,.07c1.3-2.22,3.68-3.57,6.24-3.56,4.34,0,7.09,2.32,7.09,6.81v13.74h-4.42v-12.58c-.07-3.14-1.32-4.49-3.91-4.49-2.95,0-4.85,2.32-4.85,5.27v11.79h-4.42v-20.02Z"/><path class="c" d="M214.51,86.15c0-3.46-1.75-7.05-5.7-7.05s-5.7,3.6-5.7,7.05,1.74,7.09,5.7,7.09,5.7-3.61,5.7-7.09m-15.81,0c0-6.12,3.69-10.54,10.14-10.54s10.14,4.42,10.14,10.54-3.69,10.58-10.14,10.58-10.14-4.42-10.14-10.58Z"/><path class="c" d="M220.59,76.15h3.33v-6h4.42v6h3.99v3.3h-3.99v10.7c0,1.84,.16,2.77,2.14,2.77,.62,.03,1.24-.03,1.84-.16v3.41c-.97,.08-1.9,.24-2.87,.24-4.61,0-5.46-1.79-5.53-5.12v-11.84h-3.33v-3.3Z"/><path class="c" d="M233.49,76.15h3.34v-6h4.42v6h3.99v3.3h-3.99v10.7c0,1.84,.16,2.77,2.13,2.77,.62,.02,1.24-.03,1.84-.16v3.41c-.97,.08-1.9,.24-2.87,.24-4.61,0-5.47-1.79-5.53-5.12v-11.84h-3.34v-3.3Z"/><path class="c" d="M262.18,84.41c-.16-2.77-2.06-5.31-5.03-5.31-2.89-.02-5.25,2.31-5.27,5.2,0,.04,0,.07,0,.11h10.31Zm-10.31,2.9c0,3.14,1.71,5.93,5.39,5.93,2.22,.22,4.28-1.18,4.89-3.33h4.19c-.97,4.38-4.69,6.81-9.07,6.81-6.28,0-9.81-4.37-9.81-10.54,0-5.7,3.69-10.58,9.7-10.58,6.32,0,10.19,5.7,9.45,11.7h-14.73Z"/></g><path class="c" d="M192.92,21.86c-1.66-1.11-3.65-1.63-5.64-1.48-1.9-.06-3.78,.5-5.33,1.6-1.47,1.08-2.67,2.47-3.53,4.07-.91,1.68-1.56,3.49-1.92,5.37-.38,1.76-.58,3.55-.6,5.34-.01,1.1,.12,2.2,.39,3.26,.24,.98,.69,1.88,1.33,2.66,.64,.76,1.45,1.38,2.35,1.8,1.13,.48,2.36,.71,3.59,.67,1.13,.02,2.24-.18,3.3-.59,.94-.39,1.82-.92,2.61-1.57,.77-.64,1.41-1.41,1.9-2.28,.52-.86,.94-1.78,1.26-2.73h11.15c-1.38,4.41-4.08,8.3-7.73,11.14-3.86,2.73-8.52,4.1-13.24,3.91-5.71,0-10.15-1.33-13.32-4-3.19-2.65-4.71-6.83-4.71-12.5-.02-3.16,.49-6.31,1.53-9.3,.98-2.83,2.5-5.44,4.47-7.7,2-2.24,4.46-4.02,7.2-5.24,3.07-1.31,6.39-1.96,9.73-1.9,2.36-.02,4.71,.26,7,.82,2.06,.48,4.02,1.33,5.78,2.52,1.64,1.16,2.99,2.7,3.94,4.47,1.01,2.04,1.53,4.29,1.53,6.57h-11.17c.17-1.83-.51-3.65-1.84-4.92"/><path class="c" d="M216.68,7.53l1.37-5.89h11.24l-1.35,5.89h-11.25Zm9.99,5.89l-8.65,38.6h-11.18l8.58-38.6h11.25Z"/><path class="c" d="M257.98,13.47l-1.73,7.06h-7.96l-4.16,19.16c-.11,.4-.18,.75-.25,1.07-.04,.24-.07,.48-.08,.72-.03,.56,.1,1.12,.36,1.61,.23,.35,.53,.64,.89,.85,.37,.19,.77,.3,1.18,.34h1.31c1.34,0,2.68-.06,4.01-.21l-1.88,8.11c-1.18,.12-2.35,.2-3.46,.27s-2.35,.13-3.53,.13c-1.31,0-2.61-.12-3.9-.34-1.22-.18-2.39-.58-3.47-1.18-1-.56-1.83-1.37-2.41-2.35-.65-1.19-.95-2.53-.85-3.88,0-.56,.06-1.13,.16-1.68,.12-.62,.25-1.27,.39-1.97l4.57-20.67h-7.3l1.71-7.06h7.16l2.54-11.77h11.15l-2.51,11.77,8.05,.02Z"/><path class="c" d="M41.52,13.49l-1.25,5.81h.14c1.65-2.21,3.86-3.95,6.39-5.04,2.55-1.12,5.31-1.69,8.1-1.68,3.83,0,6.66,.81,8.52,2.35s2.78,4.12,2.78,7.53c-.03,1.1-.14,2.2-.32,3.28-.21,1.35-.49,2.78-.86,4.25l-4.98,22.01h-6.64l5.19-22.51c.06-.46,.14-.91,.25-1.37,.08-.52,.2-1.07,.31-1.65s.2-1.11,.27-1.64c.07-.43,.11-.86,.12-1.29,.12-1.63-.67-3.19-2.05-4.06-1.52-.92-3.27-1.37-5.04-1.32-1.89,.01-3.76,.45-5.46,1.28-1.73,.76-3.29,1.85-4.61,3.2-1.2,.98-2.16,2.22-2.83,3.63-.68,1.41-1.24,2.89-1.65,4.4l-4.71,21.32h-6.63L35.09,13.45l6.44,.04Z"/><path class="c" d="M96.09,13.47l-1.26,5.65h-8.1l-5.03,22.66c0,.45-.13,.87-.16,1.26-.05,.43-.08,.85-.07,1.28-.08,.86,.39,1.68,1.18,2.04,.89,.38,1.85,.57,2.81,.55,.66,0,1.32-.06,1.97-.19,.64-.12,1.27-.28,1.88-.48l-1.18,5.81-2.35,.28c-.8,.07-1.57,.11-2.35,.11-1.18,0-2.36-.08-3.53-.25-1.02-.14-2-.47-2.88-.99-1.77-1-2.82-2.91-2.72-4.94,.01-.52,.05-1.05,.13-1.57,.08-.51,.18-1.06,.29-1.66l5.33-23.92h-6.83l1.25-5.65h6.83l2.54-11.48h6.69l-2.52,11.48h8.09Z"/><path class="c" d="M127.42,25.06c-.27-1.26-.81-2.44-1.58-3.47-.8-1.04-1.84-1.87-3.03-2.42-1.48-.67-3.09-.99-4.71-.94-1.78-.02-3.54,.27-5.21,.86-1.48,.54-2.86,1.34-4.06,2.35-1.15,.99-2.13,2.15-2.91,3.45-.79,1.31-1.42,2.71-1.9,4.17h23.62c.11-1.33,.01-2.66-.28-3.96m-24.53,12.95c-.02,1.38,.28,2.76,.88,4,.54,1.14,1.35,2.14,2.35,2.91,1.01,.8,2.16,1.41,3.39,1.8,1.26,.43,2.59,.65,3.92,.65,2.61,.11,5.18-.56,7.42-1.91,1.98-1.33,3.49-3.26,4.31-5.5h6.69c-.46,2.03-1.32,3.95-2.52,5.65-1.12,1.6-2.53,2.97-4.17,4.04-1.67,1.09-3.51,1.91-5.44,2.44-2.05,.56-4.16,.85-6.29,.84-2.86,.08-5.7-.42-8.36-1.47-2.04-.83-3.85-2.11-5.32-3.74-1.27-1.45-2.21-3.16-2.73-5.01-.51-1.7-.78-3.46-.79-5.24-.03-3.45,.54-6.88,1.68-10.13,1.03-2.89,2.58-5.56,4.57-7.89,1.85-2.14,4.12-3.86,6.67-5.07,2.53-1.21,5.3-1.83,8.1-1.81,5.97,0,10.33,1.51,13.08,4.47,2.74,2.97,4.12,7.19,4.12,12.61,0,.95-.08,1.89-.25,2.83-.15,.89-.28,1.61-.38,2.18h-30.7c-.14,1.12-.21,2.24-.2,3.37h-.05Z"/><path class="c" d="M152.11,13.44l-1.98,8.24h.18c1.52-2.59,3.57-4.83,6.01-6.57,2.58-1.78,5.65-2.7,8.78-2.61,.39,0,.79-.02,1.18-.07,.39-.06,.79-.03,1.18,.07l-1.57,6.79c-.34-.06-.68-.09-1.02-.08h-3c-.66,.04-1.32,.15-1.97,.33-1.78,.44-3.46,1.24-4.92,2.35-1.45,1.1-2.71,2.44-3.73,3.96-.94,1.34-1.66,2.82-2.13,4.39-.54,1.65-.95,3.21-1.28,4.65l-3.85,17.09h-6.63l8.44-38.59,6.31,.05Z"/><path class="c" d="M274.19,59.02l26.04-45.55h-11.44l-13.67,27.63h-.18l-3.44-27.63h-11.15l7.06,38.21c-.35,.45-2.14,3.46-2.48,4.05-.31,.61-.71,1.18-1.18,1.68-.54,.57-1.18,1.03-1.88,1.35-.28,.12-.56,.2-.86,.26H8.07l-2.11,7.77,262.98,.28,5.12-7.79h0l.15-.25h-.02Z"/><path class="c" d="M19.03,6.56l.91-4.86h6.78l-.93,4.86h-6.76Zm5.19,6.9L15.71,52.05h-6.6L17.52,13.45h6.7Z"/></g><path class="d" d="M334.13,1.75c-9.27-.14-18.38,2.42-26.23,7.35,4.58-1.59,9.4-2.37,14.25-2.3,22.59,.31,40.64,18.54,40.33,40.73-.31,22.19-18.86,39.91-41.45,39.6-10.68-.12-20.9-4.39-28.49-11.91,13.99,22.61,43.66,29.59,66.26,15.6,22.61-13.99,29.59-43.66,15.6-66.26-8.65-13.97-23.83-22.57-40.26-22.8"/></g><g id="b"/></svg>