<?xml version="1.0" encoding="UTF-8" standalone="no"?>
<svg
   xmlns:dc="http://purl.org/dc/elements/1.1/"
   xmlns:cc="http://creativecommons.org/ns#"
   xmlns:rdf="http://www.w3.org/1999/02/22-rdf-syntax-ns#"
   xmlns:svg="http://www.w3.org/2000/svg"
   xmlns="http://www.w3.org/2000/svg"
   xmlns:xlink="http://www.w3.org/1999/xlink"
   xmlns:sodipodi="http://sodipodi.sourceforge.net/DTD/sodipodi-0.dtd"
   xmlns:inkscape="http://www.inkscape.org/namespaces/inkscape"
   inkscape:version="1.0 (4035a4fb49, 2020-05-01)"
   height="66"
   width="443"
   sodipodi:docname="fb.svg"
   xml:space="preserve"
   viewBox="0 0 443 66"
   y="0px"
   x="0px"
   id="Livello_1"
   version="1.1"><metadata
   id="metadata124"><rdf:RDF><cc:Work
       rdf:about=""><dc:format>image/svg+xml</dc:format><dc:type
         rdf:resource="http://purl.org/dc/dcmitype/StillImage" /><dc:title></dc:title></cc:Work></rdf:RDF></metadata><defs
   id="defs122" /><sodipodi:namedview
   inkscape:current-layer="Livello_1"
   inkscape:window-maximized="0"
   inkscape:window-y="0"
   inkscape:window-x="0"
   inkscape:cy="83.336848"
   inkscape:cx="40.745148"
   inkscape:zoom="1.0924309"
   showgrid="false"
   id="namedview120"
   inkscape:window-height="1024"
   inkscape:window-width="2029"
   inkscape:pageshadow="2"
   inkscape:pageopacity="0"
   guidetolerance="10"
   gridtolerance="10"
   objecttolerance="10"
   borderopacity="1"
   bordercolor="#666666"
   pagecolor="#ffffff" />
<style
   id="style2"
   type="text/css">
	.st0{clip-path:url(#SVGID_2_);fill:url(#SVGID_3_);}
	.st1{clip-path:url(#SVGID_5_);fill:url(#SVGID_6_);}
	.st2{clip-path:url(#SVGID_8_);fill:url(#SVGID_9_);}
	.st3{fill:#23201F;}
</style>
<g
   transform="translate(-124,-70)"
   id="g29">
	<defs
   id="defs5">
		<polygon
   points="131.8,118.3 125,133.1 268.4,133.1 275.2,118.3 "
   id="SVGID_1_" />
	</defs>
	<clipPath
   id="SVGID_2_">
		<use
   height="100%"
   width="100%"
   y="0"
   x="0"
   id="use7"
   style="overflow:visible"
   xlink:href="#SVGID_1_" />
	</clipPath>
	
		<linearGradient
   gradientTransform="matrix(0,-17.861,-17.861,0,10258.263,52.3541)"
   y2="563.13562"
   x2="-3.6947"
   y1="563.13562"
   x1="-4.5191998"
   gradientUnits="userSpaceOnUse"
   id="SVGID_3_">
		<stop
   id="stop10"
   style="stop-color:#00501F"
   offset="0" />
		<stop
   id="stop12"
   style="stop-color:#006528"
   offset="0.1585" />
		<stop
   id="stop14"
   style="stop-color:#00752E"
   offset="0.317" />
		<stop
   id="stop16"
   style="stop-color:#008032"
   offset="0.4742" />
		<stop
   id="stop18"
   style="stop-color:#008834"
   offset="0.6299" />
		<stop
   id="stop20"
   style="stop-color:#008D36"
   offset="0.7829" />
		<stop
   id="stop22"
   style="stop-color:#008F36"
   offset="0.9307" />
		<stop
   id="stop24"
   style="stop-color:#00501F"
   offset="1" />
	</linearGradient>
	<rect
   style="fill:url(#SVGID_3_)"
   id="rect27"
   clip-path="url(#SVGID_2_)"
   height="14.7"
   width="150.2"
   class="st0"
   y="118.3"
   x="125" />
</g>
<g
   transform="translate(-124,-70)"
   id="g60">
	<defs
   id="defs32">
		<polygon
   points="275.2,118.3 268.4,133.1 412.8,133.1 419.6,118.3 "
   id="SVGID_4_" />
	</defs>
	<clipPath
   id="SVGID_5_">
		<use
   height="100%"
   width="100%"
   y="0"
   x="0"
   id="use34"
   style="overflow:visible"
   xlink:href="#SVGID_4_" />
	</clipPath>
	
		<linearGradient
   gradientTransform="matrix(0,-17.8629,-17.8629,0,10433.889,52.354)"
   y2="564.85083"
   x2="-3.6942"
   y1="564.85083"
   x1="-4.5187001"
   gradientUnits="userSpaceOnUse"
   id="SVGID_6_">
		<stop
   id="stop37"
   style="stop-color:#9C9E9F"
   offset="0" />
		<stop
   id="stop39"
   style="stop-color:#B0B1B3"
   offset="9.510756e-02" />
		<stop
   id="stop41"
   style="stop-color:#CDCFD0"
   offset="0.2652" />
		<stop
   id="stop43"
   style="stop-color:#E4E4E5"
   offset="0.4356" />
		<stop
   id="stop45"
   style="stop-color:#F3F3F4"
   offset="0.6041" />
		<stop
   id="stop47"
   style="stop-color:#FCFCFC"
   offset="0.77" />
		<stop
   id="stop49"
   style="stop-color:#FFFFFF"
   offset="0.93" />
		<stop
   id="stop51"
   style="stop-color:#F2F2F2"
   offset="0.9432" />
		<stop
   id="stop53"
   style="stop-color:#CDCED0"
   offset="0.9699" />
		<stop
   id="stop55"
   style="stop-color:#9C9E9F"
   offset="1" />
	</linearGradient>
	<rect
   style="fill:url(#SVGID_6_)"
   id="rect58"
   clip-path="url(#SVGID_5_)"
   height="14.7"
   width="151.2"
   class="st1"
   y="118.3"
   x="268.39999" />
</g>
<g
   transform="translate(-124,-70)"
   id="g89">
	<defs
   id="defs63">
		<polygon
   points="412.8,133.1 555.5,133.1 562.1,118.4 419.6,118.3 "
   id="SVGID_7_" />
	</defs>
	<clipPath
   id="SVGID_8_">
		<use
   height="100%"
   width="100%"
   y="0"
   x="0"
   id="use65"
   style="overflow:visible"
   xlink:href="#SVGID_7_" />
	</clipPath>
	
		<linearGradient
   gradientTransform="matrix(0,-17.8629,-17.8629,0,10607.851,52.354)"
   y2="566.55969"
   x2="-3.6942"
   y1="566.55969"
   x1="-4.5187001"
   gradientUnits="userSpaceOnUse"
   id="SVGID_9_">
		<stop
   id="stop68"
   style="stop-color:#830B1C"
   offset="0" />
		<stop
   id="stop70"
   style="stop-color:#830B1C"
   offset="3.649640e-03" />
		<stop
   id="stop72"
   style="stop-color:#960A21"
   offset="0.1069" />
		<stop
   id="stop74"
   style="stop-color:#AF0526"
   offset="0.2748" />
		<stop
   id="stop76"
   style="stop-color:#C3002A"
   offset="0.4428" />
		<stop
   id="stop78"
   style="stop-color:#D1002C"
   offset="0.6091" />
		<stop
   id="stop80"
   style="stop-color:#D9002E"
   offset="0.7728" />
		<stop
   id="stop82"
   style="stop-color:#DC002E"
   offset="0.9307" />
		<stop
   id="stop84"
   style="stop-color:#840B1D"
   offset="1" />
	</linearGradient>
	<rect
   style="fill:url(#SVGID_9_)"
   id="rect87"
   clip-path="url(#SVGID_8_)"
   height="14.7"
   width="149.2"
   class="st2"
   y="118.3"
   x="412.79999" />
</g>
<g
   transform="translate(-124,-70)"
   id="g117">
	<path
   id="path91"
   d="m 184.3,80.9 h -11 c -4,0 -7.2,1.8 -9.5,5.5 H 182 l -3.2,7.4 h -18.3 l -5.4,12.7 h -8.8 L 153,90.8 c 1.7,-3.9 3,-6.7 4.1,-8.4 1.9,-2.9 4.1,-5 6.7,-6.4 3.2,-1.7 7.2,-2.5 12.2,-2.5 h 11.4 z"
   class="st3" />
	<path
   id="path93"
   d="m 210.3,93.3 2,13.2 H 203 l -1.7,-12.1 h -5.9 l -5.1,12.1 h -8.7 l 14,-33 H 212 c 6,0 9,1.9 9,5.8 0,1.4 -0.4,3.1 -1.2,5.1 -2,4.5 -5.2,7.5 -9.5,8.9 z m -2.1,-12.1 h -7.1 l -2.4,5.7 h 6.2 c 1.9,0 3.2,-0.1 4,-0.4 1.1,-0.4 1.9,-1.4 2.6,-2.9 0.4,-1 0.5,-1.6 0.2,-1.8 -0.6,-0.5 -1.8,-0.6 -3.5,-0.6 z"
   class="st3" />
	<path
   id="path95"
   d="m 251.5,80.9 h -11.2 c -3.5,0 -6.3,1.7 -8.4,5.1 h 17.5 l -3.2,7.5 h -17.7 c -0.5,1.3 -0.7,2.3 -0.7,3.1 0,0.5 0.1,0.9 0.3,1.2 0.5,0.7 1.7,1.1 3.6,1.1 h 12.2 l -3.2,7.5 h -11.5 c -4.8,0 -8.1,-1.3 -9.7,-4 -0.8,-1.2 -1.2,-2.7 -1.2,-4.5 0,-2.2 0.7,-4.9 2,-8 2.6,-6.1 5.8,-10.5 9.6,-13.1 3.4,-2.3 7.6,-3.5 12.6,-3.5 h 12.3 z"
   class="st3" />
	<path
   id="path97"
   d="M 285.2,80.8 H 274 c -2.6,0 -4.9,0.9 -6.8,2.8 -1.5,1.5 -2.8,3.7 -4.1,6.7 -0.3,0.6 -0.7,1.5 -1.2,2.8 -0.5,1.3 -0.7,2.3 -0.7,3.1 0,1.8 1.4,2.8 4.2,2.8 h 12.2 l -3.2,7.5 h -11.5 c -4.8,0 -8.1,-1.3 -9.7,-4 -0.8,-1.2 -1.2,-2.7 -1.2,-4.5 0,-2.2 0.7,-4.9 2,-8 4.7,-11.1 12.1,-16.6 22.2,-16.6 h 12.3 z"
   class="st3" />
	<path
   id="path99"
   d="m 318.8,80.8 h -11.2 c -2.6,0 -4.9,0.9 -6.8,2.8 -1.5,1.5 -2.8,3.7 -4.1,6.7 -0.3,0.6 -0.7,1.5 -1.2,2.8 -0.5,1.3 -0.7,2.3 -0.7,3.1 0,1.8 1.4,2.8 4.2,2.8 h 12.2 l -3.2,7.5 h -11.5 c -4.8,0 -8.1,-1.3 -9.7,-4 -0.8,-1.2 -1.2,-2.7 -1.2,-4.5 0,-2.2 0.7,-4.9 2,-8 4.7,-11.1 12.1,-16.6 22.2,-16.6 H 322 Z"
   class="st3" />
	<path
   id="path101"
   d="m 325.2,106.5 h -9 l 14,-33 h 9 z"
   class="st3" />
	<path
   id="path103"
   d="m 365.7,106.5 h -9.2 l 0.3,-7.4 h -11.7 l -5.8,7.4 h -9.5 l 27.8,-33 h 8.3 z M 351.2,91.4 h 5.8 l 0.3,-7.6 z"
   class="st3" />
	<path
   id="path105"
   d="m 403.4,87.8 c -0.8,0.7 -2,1.5 -3.5,2.4 1,1.2 1.6,2.4 1.6,3.8 0,0.9 -0.3,2 -0.8,3.3 -1.2,2.9 -2.7,5 -4.6,6.4 -2.5,1.9 -5.9,2.8 -10.3,2.8 h -18.4 l 14,-33 h 16.4 c 3.8,0 6.4,0.5 7.8,1.6 1.3,0.9 1.9,2.2 1.9,3.9 0,1.3 -0.4,2.8 -1.1,4.5 -0.7,1.7 -1.8,3.2 -3,4.3 z m -13.1,6 h -8.8 l -2.2,5.1 h 7.7 c 2.5,0 4.1,-1 5,-3 0.2,-0.6 0.4,-1 0.4,-1.3 -0.1,-0.5 -0.8,-0.8 -2.1,-0.8 z m 5.2,-12.6 h -8.7 l -2.1,5 h 7.6 c 2.5,0 4.1,-1 4.9,-2.9 0.2,-0.5 0.3,-0.9 0.3,-1.2 0.1,-0.7 -0.6,-0.9 -2,-0.9 z"
   class="st3" />
	<path
   id="path107"
   d="m 410.7,106.5 h -9 l 14,-33 h 9 z"
   class="st3" />
	<path
   id="path109"
   d="M 451.2,106.5 H 442 l 0.3,-7.4 h -11.7 l -5.8,7.4 h -9.5 l 27.8,-33 h 8.3 z M 436.8,91.4 h 5.8 l 0.3,-7.6 z"
   class="st3" />
	<path
   id="path111"
   d="m 482,106.5 h -9 l -2.9,-20.3 -8.6,20.3 h -8.7 l 14,-33 h 9.8 l 2.7,19.2 8.1,-19.2 h 8.5 z"
   class="st3" />
	<path
   id="path113"
   d="m 526.3,80.8 h -11.2 c -2.6,0 -4.9,0.9 -6.8,2.8 -1.5,1.5 -2.8,3.7 -4.1,6.7 -0.3,0.6 -0.7,1.5 -1.2,2.8 -0.5,1.3 -0.7,2.3 -0.7,3.1 0,1.8 1.4,2.8 4.2,2.8 h 12.2 l -3.2,7.5 H 504 c -4.8,0 -8.1,-1.3 -9.7,-4 -0.8,-1.2 -1.2,-2.7 -1.2,-4.5 0,-2.2 0.7,-4.9 2,-8 4.7,-11.1 12.1,-16.6 22.2,-16.6 h 12.3 z"
   class="st3" />
	<path
   id="path115"
   d="m 554.9,106.5 h -9.2 l 0.3,-7.4 h -11.7 l -5.8,7.4 H 519 l 27.8,-33 h 8.3 z M 540.4,91.4 h 5.8 l 0.3,-7.6 z"
   class="st3" />
</g>
</svg>
