<svg xmlns:dc="http://purl.org/dc/elements/1.1/" xmlns:cc="http://creativecommons.org/ns#" xmlns:rdf="http://www.w3.org/1999/02/22-rdf-syntax-ns#" xmlns:svg="http://www.w3.org/2000/svg" xmlns="http://www.w3.org/2000/svg" xmlns:xlink="http://www.w3.org/1999/xlink" xmlns:sodipodi="http://sodipodi.sourceforge.net/DTD/sodipodi-0.dtd" xmlns:inkscape="http://www.inkscape.org/namespaces/inkscape" inkscape:version="1.0 (4035a4fb49, 2020-05-01)" height="34.700001" width="265.5" sodipodi:docname="fr.svg" xml:space="preserve" viewBox="0 0 265.5 34.700004" y="0px" x="0px" id="Livello_1" version="1.1"><metadata id="metadata62"><rdf:RDF><cc:Work rdf:about=""><dc:format>image/svg+xml</dc:format><dc:type rdf:resource="http://purl.org/dc/dcmitype/StillImage"/><dc:title/></cc:Work></rdf:RDF></metadata><defs id="defs60"/><sodipodi:namedview inkscape:current-layer="Livello_1" inkscape:window-maximized="0" inkscape:window-y="0" inkscape:window-x="-8" inkscape:cy="37.349998" inkscape:cx="204.25" inkscape:zoom="3.6744186" showgrid="false" id="namedview58" inkscape:window-height="924" inkscape:window-width="2325" inkscape:pageshadow="2" inkscape:pageopacity="0" guidetolerance="10" gridtolerance="10" objecttolerance="10" borderopacity="1" bordercolor="#666666" pagecolor="#ffffff"/>
<style id="style2" type="text/css">
	.Arco_x0020_verde{fill:url(#SVGID_1_);stroke:#FFFFFF;stroke-width:0.25;stroke-miterlimit:1;}
	.st0{fill-rule:evenodd;clip-rule:evenodd;fill:#192F39;}
	.st1{fill-rule:evenodd;clip-rule:evenodd;fill:#FFFFFF;}
	.st2{fill:none;stroke:#000000;stroke-width:0.216;stroke-miterlimit:22.9256;}
	.st3{clip-path:url(#SVGID_3_);fill:url(#SVGID_4_);}
	.st4{clip-path:url(#SVGID_6_);fill:url(#SVGID_7_);}
</style>
<linearGradient y2="467.7514" x2="-100.7797" y1="468.4585" x1="-101.4868" gradientUnits="userSpaceOnUse" id="SVGID_1_">
	<stop id="stop4" style="stop-color:#259E2E" offset="0"/>
	<stop id="stop6" style="stop-color:#1C381D" offset="0.9831"/>
</linearGradient>
<g transform="translate(-71.632606,-20.3)" id="g55">
	<path id="path9" d="m 208.6,31.3 h 3.8 l 0.2,-4.6 z m 9.3,9.1 h -6 l 0.2,-4.5 h -7.6 l -3.8,4.5 h -6.2 l 17.9,-19.9 h 5.4 z m -26.8,0 h -5.8 l 9.1,-19.9 h 5.8 z M 187.7,25 h -7.3 c -1.7,0 -3.2,0.6 -4.4,1.7 -0.9,0.9 -1.8,2.2 -2.7,4.1 -0.2,0.4 -0.4,0.9 -0.8,1.7 -0.3,0.8 -0.5,1.4 -0.5,1.9 0,1.1 0.9,1.7 2.7,1.7 h 7.9 l -2.1,4.5 h -7.4 c -3.1,0 -5.2,-0.8 -6.3,-2.4 -0.5,-0.7 -0.8,-1.6 -0.8,-2.7 0,-1.3 0.4,-2.9 1.3,-4.8 3,-6.7 7.8,-10 14.3,-10 h 7.9 z m -20.1,0 h -7.3 c -1.7,0 -3.2,0.6 -4.4,1.7 -0.9,0.9 -1.8,2.2 -2.7,4.1 -0.2,0.4 -0.4,0.9 -0.8,1.7 -0.3,0.8 -0.5,1.4 -0.5,1.9 0,1.1 0.9,1.7 2.7,1.7 h 7.9 l -2.1,4.5 H 153 c -3.1,0 -5.2,-0.8 -6.3,-2.4 -0.5,-0.7 -0.8,-1.6 -0.8,-2.7 0,-1.3 0.4,-2.9 1.3,-4.8 3,-6.7 7.8,-10 14.3,-10 h 7.9 z M 146,25 h -7.3 c -2.3,0 -4.1,1 -5.5,3.1 h 11.3 l -2.1,4.5 h -11.5 c -0.3,0.8 -0.5,1.4 -0.5,1.9 0,0.3 0.1,0.6 0.2,0.7 0.3,0.4 1.1,0.6 2.3,0.6 h 7.9 l -2.1,4.5 h -7.4 c -3.1,0 -5.2,-0.8 -6.3,-2.4 -0.5,-0.7 -0.8,-1.6 -0.8,-2.7 0,-1.3 0.4,-2.9 1.3,-4.8 1.7,-3.7 3.8,-6.3 6.2,-7.9 2.2,-1.4 4.9,-2.1 8.1,-2.1 h 7.9 z m -28.4,0.2 H 113 l -1.6,3.4 h 4 c 1.2,0 2.1,-0.1 2.6,-0.3 0.7,-0.3 1.2,-0.8 1.6,-1.7 0.3,-0.6 0.3,-0.9 0.2,-1.1 -0.3,-0.2 -1.1,-0.3 -2.2,-0.3 z m 1.3,7.3 1.3,7.9 h -6 l -1.1,-7.3 h -3.8 l -3.3,7.3 h -5.6 l 9.1,-19.9 h 10.7 c 3.9,0 5.8,1.2 5.8,3.5 0,0.9 -0.3,1.9 -0.8,3 -1.4,2.8 -3.4,4.6 -6.3,5.5 z M 103.8,25 h -7.1 c -2.6,0 -4.6,1.1 -6.1,3.3 h 11.7 l -2,4.5 H 88.4 l -3.5,7.6 H 79.2 L 83.5,31 c 1.1,-2.4 2,-4.1 2.7,-5.1 1.2,-1.7 2.7,-3 4.4,-3.9 2.1,-1 4.7,-1.5 7.9,-1.5 h 7.4 z m 135.8,7.6 1.3,7.9 h -6 l -1.1,-7.2 H 230 l -3.3,7.2 h -5.6 l 9,-19.8 h 10.6 c 3.9,0 5.8,1.2 5.8,3.5 0,0.9 -0.3,1.9 -0.8,3 -1.2,2.7 -3.2,4.5 -6.1,5.4 z m -1.3,-7.3 h -4.6 l -1.6,3.4 h 4 c 1.2,0 2.1,-0.1 2.6,-0.3 0.7,-0.3 1.2,-0.8 1.6,-1.7 0.3,-0.6 0.3,-0.9 0.2,-1.1 -0.3,-0.2 -1.1,-0.3 -2.2,-0.3 z m 30.4,5.6 c -3.1,6.7 -8,10 -14.9,10 -5,0 -7.5,-1.8 -7.5,-5.3 0,-1.5 0.5,-3.3 1.4,-5.3 1.5,-3.2 3.3,-5.7 5.6,-7.3 2.5,-1.8 5.6,-2.7 9.2,-2.7 5.1,0 7.7,1.7 7.7,5 0.1,1.4 -0.4,3.3 -1.5,5.6 z m -7.5,-6.1 c -3.3,0 -5.9,2 -7.7,6 -0.8,1.7 -1.2,3 -1.2,3.9 0,0.1 0,0.2 0,0.2 0.1,1 1.1,1.6 2.9,1.6 1.9,0 3.5,-0.6 4.8,-1.8 1.1,-1 2,-2.4 2.9,-4.3 0.7,-1.5 1,-2.7 1,-3.6 0,-0.4 -0.1,-0.7 -0.2,-1 -0.2,-0.7 -1.1,-1 -2.5,-1 z m 32.1,0.5 h -10.6 c -1.9,0 -3.1,0.7 -3.8,2.1 -0.1,0.2 -0.2,0.4 -0.2,0.6 0,0.4 0.4,0.6 1.2,0.6 h 5.4 c 2.1,0 3.5,0.3 4.3,0.9 0.7,0.5 1.1,1.3 1.1,2.2 0,0.8 -0.3,1.9 -0.8,3 -0.9,2.1 -2.2,3.6 -3.9,4.5 -1.6,0.9 -3.6,1.4 -6.1,1.4 h -12.1 l 2.1,-4.6 h 10.8 c 1,0 1.7,-0.1 2.2,-0.3 0.6,-0.2 1.1,-0.7 1.4,-1.3 0.2,-0.5 0.3,-0.8 0.3,-0.9 0,0 0,-0.1 0,-0.1 -0.2,-0.2 -0.7,-0.3 -1.5,-0.3 h -4.9 c -3.7,0 -5.5,-1.1 -5.5,-3.4 0,-0.8 0.2,-1.8 0.7,-2.9 1.8,-4 5.2,-6 10,-6 h 11.9 z m 22.8,0 h -10.6 c -1.9,0 -3.1,0.7 -3.8,2.1 -0.1,0.2 -0.2,0.4 -0.2,0.6 0,0.4 0.4,0.6 1.2,0.6 h 5.4 c 2.1,0 3.5,0.3 4.3,0.9 0.7,0.5 1.1,1.3 1.1,2.2 0,0.8 -0.3,1.9 -0.8,3 -0.9,2.1 -2.2,3.6 -3.9,4.5 -1.6,0.9 -3.6,1.4 -6.1,1.4 h -12.1 l 2.1,-4.6 h 10.8 c 1,0 1.7,-0.1 2.2,-0.3 0.6,-0.2 1.1,-0.7 1.4,-1.3 0.2,-0.5 0.3,-0.8 0.3,-0.9 0,0 0,-0.1 0,-0.1 -0.2,-0.2 -0.7,-0.3 -1.5,-0.3 H 301 c -3.7,0 -5.5,-1.1 -5.5,-3.4 0,-0.8 0.2,-1.8 0.8,-2.9 1.8,-4 5.2,-6 10,-6 h 11.9 z m 19.2,15.2 h -5.9 l 0.2,-4.4 H 322 l -3.8,4.4 h -6.1 L 330,20.7 h 5.4 z m -9.3,-9 h 3.7 l 0.2,-4.6 z" class="st0"/>
	<polygon id="polygon11" points="332.9,54.4 71.8,54.4 75.6,46 336.7,46 " class="st1"/>
	<polygon id="polygon13" points="332.9,54.4 71.8,54.4 75.6,46 336.7,46 " class="st2"/>
	<g id="g32">
		<defs id="defs16">
			<polygon points="73.2,53.4 159.6,53.4 162.5,46.9 76.2,46.9 " id="SVGID_2_"/>
		</defs>
		<clipPath id="SVGID_3_">
			<use height="100%" width="100%" y="0" x="0" id="use18" style="overflow:visible" xlink:href="#SVGID_2_"/>
		</clipPath>
		
			<linearGradient gradientTransform="matrix(0,-6.5194,89.3429,0,-99835.758,-6071.8018)" y2="1118.764" x2="-938.54053" y1="1118.764" x1="-939.54053" gradientUnits="userSpaceOnUse" id="SVGID_4_">
			<stop id="stop21" style="stop-color:#00501F" offset="0"/>
			<stop id="stop23" style="stop-color:#00712D" offset="0.28"/>
			<stop id="stop25" style="stop-color:#008E36" offset="0.93"/>
			<stop id="stop27" style="stop-color:#00501F" offset="1"/>
		</linearGradient>
		<rect style="fill:url(#SVGID_4_)" id="rect30" clip-path="url(#SVGID_3_)" height="6.5" width="89.300003" class="st3" y="46.900002" x="73.199997"/>
	</g>
	<polygon id="polygon34" points="159.6,53.4 245.9,53.4 248.9,46.9 162.5,46.9 " class="st1"/>
	<g id="g53">
		<defs id="defs37">
			<polygon points="245.9,53.4 332.3,53.4 335.3,46.9 248.9,46.9 " id="SVGID_5_"/>
		</defs>
		<clipPath id="SVGID_6_">
			<use height="100%" width="100%" y="0" x="0" id="use39" style="overflow:visible" xlink:href="#SVGID_5_"/>
		</clipPath>
		
			<linearGradient gradientTransform="matrix(0,-6.5194,89.3429,0,-99663.07,-6071.8018)" y2="1118.7646" x2="-938.54053" y1="1118.7646" x1="-939.54053" gradientUnits="userSpaceOnUse" id="SVGID_7_">
			<stop id="stop42" style="stop-color:#830B1D" offset="0"/>
			<stop id="stop44" style="stop-color:#AF0526" offset="0.28"/>
			<stop id="stop46" style="stop-color:#DC002F" offset="0.93"/>
			<stop id="stop48" style="stop-color:#850B1D" offset="1"/>
		</linearGradient>
		<rect style="fill:url(#SVGID_7_)" id="rect51" clip-path="url(#SVGID_6_)" height="6.5" width="89.300003" class="st4" y="46.900002" x="245.89999"/>
	</g>
</g>
</svg>