<svg xmlns="http://www.w3.org/2000/svg" viewBox="0 0 404.09 99.21"><defs><style>.c{fill:#111c4e;}.c,.d{fill-rule:evenodd;}.d{fill:#ffd100;}</style></defs><g id="a"><path class="d" d="M352.93,24.2l-7.55-.5,5.98-20.07,1.57,20.57Zm7.4,49.12l-6.69,2.85,.21,.43c.07,.14,.14,.28,.28,.5,1.28,2.14,5.69,2.92,4.98,5.41-.07,.28-.14,.64-.21,.93s-.07,.57-.07,.85c-2.63,5.62,2.42,8.26,5.41,11.25,.21,.36,.43,.71,.57,1l1.78,3.2s-.43-1.71-1-4.2c-.07-.21-.07-.43-.14-.64-1.49-3.84-4.41-7.4-.64-12.53,.21-.36,.28-.71,.36-1.07,.57-2.99-3.06-3.84-4.41-6.19-.07-.28-.14-.5-.14-.71-.14-.71-.28-1.07-.28-1.07Zm9.54-9.18l2.92-6.62s.28,.21,.85,.57c.14,.14,.36,.28,.57,.43,2.56,.85,5.84-1.07,7.4,1.57,.14,.28,.36,.64,.43,1.07,.71,6.34,5.34,6.9,9.04,8.76,.21,.14,.36,.21,.57,.36l3.63,2.42s-1.35-.43-3.42-1.14c-.36-.14-.71-.21-1.14-.36-4.2-.14-9.75,1.42-11.6-4.56-.21-.21-.36-.43-.5-.71-.14-.21-.36-.5-.5-.78-1.21-2.28-4.91,.14-7.33-.57-.21-.07-.36-.14-.5-.14-.28-.28-.43-.28-.43-.28Zm.85-26.2l2.35,6.9,.43-.21c.14-.07,.28-.14,.5-.21,2.28-1.14,3.35-5.41,5.77-4.56,.28,.14,.57,.21,.93,.28,.28,.07,.57,.14,.85,.14,5.41,3.06,8.47-1.78,11.6-4.56,.36-.21,.71-.36,1.07-.5,1.99-.93,3.27-1.49,3.27-1.49,0,0-1.71,.28-4.27,.64-.21,0-.43,.07-.64,.07-3.92,1.14-7.69,3.84-12.53-.36-.36-.21-.71-.36-1.07-.43-2.92-.85-4.06,2.78-6.55,3.92-.28,.07-.5,.07-.71,.14-.64,.14-1,.21-1,.21Zm-8.26-9.54l-6.55-3.13s.21-.28,.57-.78c.14-.14,.28-.36,.43-.57,.93-2.56-.85-5.91,1.78-7.4,.28-.14,.64-.28,1.07-.43,6.34-.57,7.05-5.13,8.97-8.76,.14-.21,.28-.36,.36-.57,1.49-2.14,2.49-3.56,2.49-3.56,0,0-.5,1.35-1.21,3.42-.14,.36-.28,.71-.36,1.07-.21,4.2,1.14,9.75-4.84,11.46-.21,.21-.43,.36-.71,.5s-.5,.28-.78,.43c-2.35,1.14,0,4.91-.78,7.33-.07,.21-.14,.36-.21,.5-.14,.36-.21,.5-.21,.5Zm-21.35,47.69l-6.69-2.78s-.07,.14-.14,.43c-.07,.14-.07,.28-.14,.5-.64,2.42,1.85,6.12-.43,7.33-.28,.14-.57,.28-.78,.5-.21,.14-.5,.36-.71,.57-5.91,1.99-4.27,7.55-4.27,11.75-.07,.36-.21,.78-.36,1.14-.64,2.14-1.07,3.49-1.07,3.49,0,0,.93-1.49,2.35-3.7,.14-.21,.21-.36,.36-.57,1.71-3.7,2.21-8.33,8.54-9.18,.43-.14,.71-.28,1-.5,2.56-1.64,.57-4.84,1.35-7.47l.43-.64c.36-.57,.57-.85,.57-.85Zm32.39-21.64l.14-7.62,20.36,5.05-20.5,2.56Zm-10.32,17.37l5.41-5.34,11.1,17.72-16.51-12.39Zm6.48-36.23l-5.2-5.55,18.08-10.61-12.88,16.16Zm-26.05,41.22l7.62-.21-3.99,20.57-3.63-20.36Zm-16.59-9.97l5.62,5.13-17.23,11.96,11.6-17.08Zm20.07-40.93h-.21c3.42,3.63,5.55,8.4,5.69,13.74,.43,11.67-8.76,21.5-20.43,21.92-2.35,.07-4.63-.21-6.76-.85,3.99,8.9,13.1,14.95,23.42,14.59,13.67-.5,24.27-11.96,23.85-25.55-.43-13.67-11.89-24.27-25.55-23.85Z"/><path class="c" d="M244.64,15.24l1.44-6.43h12.47l-1.44,6.43h-12.47Zm63.67,56.97l28.88-50.41h-12.73l-15.1,30.59h-.13l-3.81-30.59h-12.34l7.75,42.27c-.39,.53-2.36,3.81-2.76,4.46-.39,.66-.79,1.31-1.31,1.84s-1.18,1.05-2.1,1.44c-.26,.13-.66,.26-.92,.26H13.86l-2.36,8.53,291.03,.26,5.64-8.66h.13Zm-17.98-50.41l-1.97,7.88h-8.8l-4.59,21.13c-.13,.39-.13,.79-.26,1.18,0,.39-.13,.66-.13,.79,0,.79,.13,1.31,.39,1.84,.26,.39,.66,.66,1.05,.92s.92,.39,1.31,.39h1.44c1.58,0,3.02-.13,4.46-.26l-2.1,8.93c-1.31,.13-2.63,.26-3.81,.26-1.31,.13-2.63,.13-3.94,.13-1.44,0-2.89-.13-4.33-.39-1.44-.26-2.76-.66-3.81-1.31-1.18-.66-1.97-1.44-2.63-2.63s-1.05-2.49-.92-4.33c0-.53,0-1.18,.13-1.84s.26-1.44,.39-2.23l5.12-22.84h-8.14l1.84-7.88h7.88l2.76-13h12.34l-2.76,13h9.06v.26Zm-71.94,9.32c-1.44-1.05-3.41-1.71-6.17-1.71-2.36,0-4.33,.53-5.91,1.84-1.58,1.18-2.89,2.76-3.94,4.46-1.05,1.84-1.71,3.81-2.1,5.91-.39,2.1-.66,4.07-.66,5.91,0,1.31,.13,2.49,.39,3.68,.26,1.18,.79,2.1,1.44,2.89s1.58,1.44,2.63,1.97,2.36,.79,3.94,.79c1.31,0,2.63-.26,3.68-.66s2.1-1.05,2.89-1.71c.92-.79,1.58-1.58,2.1-2.49,.66-.92,1.05-1.97,1.44-3.02h12.34c-1.84,5.38-4.73,9.45-8.53,12.34-3.81,2.89-8.8,4.33-14.7,4.33-6.3,0-11.29-1.44-14.7-4.46-3.54-2.89-5.25-7.61-5.25-13.78,0-3.68,.53-7.09,1.71-10.24,1.18-3.28,2.76-6.04,4.99-8.53,2.23-2.49,4.86-4.33,8.01-5.78s6.69-2.1,10.76-2.1c2.76,0,5.38,.26,7.75,.92s4.59,1.58,6.43,2.76c1.84,1.31,3.28,2.89,4.33,4.99,1.05,2.1,1.58,4.46,1.71,7.22h-12.34c-.26-2.63-.92-4.46-2.23-5.51Zm-45.16-9.32l-2.23,9.19h.13c1.71-2.89,3.94-5.38,6.69-7.22,2.76-1.97,5.91-2.89,9.71-2.89,.53,0,.92,0,1.31-.13,.39,0,.79,0,1.31,.13l-1.71,7.48c-.26,0-.66-.13-1.18-.13h-3.28c-.53,0-1.31,.13-2.23,.39-2.1,.53-3.81,1.31-5.38,2.49s-3.02,2.63-4.07,4.33c-1.05,1.44-1.84,3.02-2.36,4.86-.53,1.84-1.05,3.54-1.44,5.12l-4.33,18.9h-7.35l9.32-42.66h7.09v.13Zm-27.3,12.73c-.26-1.44-.92-2.76-1.71-3.81-.79-1.05-1.97-1.97-3.28-2.76-1.44-.66-3.15-1.05-5.12-1.05-2.1,0-4.07,.26-5.78,.92s-3.15,1.44-4.46,2.63c-1.31,1.05-2.36,2.36-3.28,3.81s-1.58,3.02-2.1,4.59h26.12c0-1.31-.13-2.89-.39-4.33Zm-27.17,14.44c0,1.58,.26,3.15,.92,4.46s1.44,2.36,2.63,3.15c1.05,.92,2.36,1.58,3.81,1.97,1.44,.53,2.89,.66,4.33,.66,3.28,0,6.04-.66,8.14-2.1s3.68-3.41,4.73-6.04h7.35c-.53,2.36-1.44,4.46-2.76,6.3s-2.76,3.28-4.59,4.46-3.81,2.1-6.04,2.76-4.46,.92-6.96,.92c-3.68,0-6.83-.53-9.32-1.58-2.49-1.05-4.46-2.49-5.91-4.2-1.44-1.71-2.49-3.54-3.02-5.51s-.92-3.94-.92-5.78c0-4.07,.66-7.88,1.84-11.16,1.31-3.41,2.89-6.3,5.12-8.8,2.1-2.36,4.59-4.33,7.35-5.64s5.78-1.97,8.8-1.97c6.56,0,11.42,1.71,14.44,4.99s4.59,8.01,4.59,13.91c0,1.05-.13,2.1-.26,3.15s-.26,1.84-.39,2.36h-33.87c0,1.18,0,2.36,0,3.68Zm-7.48-27.17l-1.44,6.3h-8.93l-5.51,25.07c-.13,.53-.13,.92-.13,1.44,0,.39-.13,.92-.13,1.44,0,1.05,.39,1.84,1.31,2.23,.92,.39,1.97,.66,3.15,.66,.79,0,1.44-.13,2.23-.26,.66-.13,1.44-.26,2.1-.53l-1.31,6.43c-.92,.13-1.71,.26-2.63,.26-.92,.13-1.71,.13-2.63,.13-1.44,0-2.63-.13-3.94-.26-1.18-.26-2.23-.53-3.15-1.05-.92-.53-1.58-1.18-2.23-2.1-.53-.92-.79-1.97-.79-3.41,0-.66,.13-1.18,.13-1.71,.13-.53,.13-1.18,.26-1.84l5.91-26.52h-7.61l1.44-6.3h7.61l2.76-12.73h7.35l-2.76,12.73h8.93Zm-60.39,0l-1.31,6.43h.13c1.84-2.49,4.2-4.33,7.09-5.51,2.89-1.31,5.78-1.84,8.93-1.84,4.2,0,7.35,.92,9.45,2.63s3.02,4.59,3.02,8.4c0,.92-.13,2.1-.39,3.68-.26,1.44-.53,3.02-.92,4.73l-5.51,24.42h-7.35l5.78-24.94c0-.39,.13-.92,.26-1.44s.26-1.18,.39-1.84c.13-.66,.26-1.18,.26-1.84,.13-.53,.13-1.05,.13-1.44,0-2.1-.79-3.54-2.23-4.46-1.58-.92-3.41-1.44-5.51-1.44-1.97,0-4.07,.53-6.04,1.44s-3.68,2.1-5.12,3.54c-1.31,1.05-2.36,2.49-3.15,4.07s-1.31,3.15-1.84,4.86l-5.25,23.63h-7.35l9.45-42.66h7.09v-.39Zm-24.94-7.61l1.05-5.38h7.48l-1.05,5.38h-7.48Zm5.78,7.61l-9.45,42.66h-7.35L24.23,21.8h7.48Zm223.95,0l-9.58,42.66h-12.34l9.45-42.66h12.47Z"/></g><g id="b"/></svg>