<svg xmlns="http://www.w3.org/2000/svg" xmlns:xlink="http://www.w3.org/1999/xlink" version="1.1" id="Livello_1" x="0px" y="0px" viewBox="0 0 877.4 506.2" style="enable-background:new 0 0 877.4 506.2;" xml:space="preserve">
<g>
	<path d="M290.5,224c9.9-44.9,19.7-89.1,29.5-133.8c-53.2,0-105.9,0-159,0c6.1-25.2,12-49.9,18.1-74.5c0.3-1.2,2.2-2.3,3.6-2.9   c1.2-0.5,2.7-0.1,4.1-0.1c116,0,232-0.2,348,0.2c30.4,0.1,60.6,3.5,89.7,13.9c36,12.9,57.9,38,65.5,75.4   c5.9,28.9,6.1,57.6-3.6,85.9c-11.1,32.4-33.7,55.2-62.3,72.7c-2.2,1.3-4.4,2.7-7,4.2c2.5,3.1,5,5.9,7.2,8.8   c11.7,15.6,16.9,33.5,18.9,52.6c3,28.6-0.4,57.2-2,85.7c-0.7,12.8-0.5,25.4,4.2,37.6c1.2,3.1,2.2,6.9,4.5,9   c8.6,7.6,8.3,16.6,5.4,26.3c-0.8,2.6-1,5.4-1.6,8.6c-5.1,0-10,0-15,0c-22.9,0-45.8-0.1-68.6,0.1c-3.4,0-5.6-0.5-6.3-4.3   c-2.4-13.7-6.7-27.2-7.2-40.9c-0.6-18.4,1.9-36.8,2.7-55.3c0.6-14.7,1.3-29.4,0.4-44.1c-1.7-27.5-14.5-42.2-41.6-47.4   c-12.8-2.5-26-3.5-39-3.6c-38-0.5-76-0.2-114.7-0.2c-2.5,10.7-5,21.5-7.4,32.2c-12,53-23.9,106.1-36,159.1   c-0.4,1.7-2.7,4.2-4.1,4.2c-29,0.2-58.1,0.2-87.8,0.2c14.5-64.1,28.8-127.7,43.3-191.9c-50.9,0-101.3,0-152.8,0   c6.4-26.3,12.6-51.8,18.8-77.7C189,224,239.5,224,290.5,224z M380.9,218.9c1.8,0.1,3,0.3,4.2,0.3c35.8,0,71.6,0.5,107.4-0.2   c16.4-0.3,33.1-1.5,49.1-5c45.3-9.7,66.9-40.1,61.1-83.3c-2.6-19.5-15.1-33.3-34.5-36.9c-9.9-1.9-20.1-3.2-30.1-3.3   c-41.8-0.4-83.6-0.3-125.3-0.4c-1,0-2,0.2-3.5,0.3C399.8,133.2,390.4,175.9,380.9,218.9z"/>
</g>
</svg>